<svg width="29" height="28" viewBox="0 0 29 28" fill="none" xmlns="http://www.w3.org/2000/svg">
<g clip-path="url(#clip0_670_115)">
<path d="M11.7654 25.4346C11.7654 26.2236 11.1417 26.8421 10.3981 26.8421C9.65442 26.8421 9.03072 26.2236 9.03072 25.4346C9.03072 24.6457 9.65442 24.0271 10.3981 24.0271C11.1417 24.0271 11.7654 24.6457 11.7654 25.4346Z" fill="#BDBDBD" stroke="#252B42" stroke-width="1.22391"/>
<path d="M23.7907 25.4346C23.7907 26.2236 23.167 26.8421 22.4234 26.8421C21.6797 26.8421 21.056 26.2236 21.056 25.4346C21.056 24.6457 21.6797 24.0271 22.4234 24.0271C23.167 24.0271 23.7907 24.6457 23.7907 25.4346Z" fill="#BDBDBD" stroke="#252B42" stroke-width="1.22391"/>
<path d="M27.2935 3.93389L27.2984 3.94015L27.3036 3.94628C27.331 3.97898 27.3515 4.01851 27.3625 4.06215C27.3732 4.10429 27.3747 4.14849 27.3668 4.19137L24.58 16.7488L24.5798 16.7495C24.565 16.8167 24.5284 16.874 24.4792 16.9131C24.4302 16.9521 24.3715 16.9712 24.313 16.9697L24.3053 16.9696H24.2977H10.7154H10.4911L10.3199 17.1145L8.1999 18.9095L8.11464 18.9817L8.06039 19.0794C7.95991 19.2603 7.90726 19.4636 7.90674 19.67C7.90622 19.8764 7.95782 20.08 8.05737 20.2614C8.15696 20.4428 8.30155 20.5965 8.47832 20.7064C8.65519 20.8163 8.85784 20.8784 9.06664 20.8857L9.0773 20.8861H9.08796H23.9107C23.9776 20.8861 24.0444 20.9131 24.0956 20.9653C24.1473 21.018 24.1784 21.092 24.1784 21.1716C24.1784 21.2513 24.1473 21.3253 24.0956 21.3779C24.0444 21.4302 23.9776 21.4572 23.9107 21.4572H9.22871H9.21327L9.19785 21.458C8.91827 21.4721 8.63896 21.4193 8.38208 21.3034C8.12702 21.1882 7.90053 21.0137 7.72106 20.7925C7.47293 20.469 7.34123 20.0658 7.35081 19.6516C7.36029 19.242 7.5072 18.8501 7.76429 18.5408L7.84085 18.4627L9.25989 17.2797L9.57349 17.0182L9.45251 16.6283L5.41475 3.61405L5.31954 3.30718L5.01288 3.21131L1.85529 2.22418C1.85524 2.22416 1.8552 2.22415 1.85515 2.22413C1.78906 2.20337 1.72997 2.15543 1.69415 2.08647C1.65811 2.01707 1.65017 1.93455 1.67318 1.85818C1.6961 1.78207 1.74654 1.72213 1.8091 1.6883C1.84007 1.67156 1.87341 1.66149 1.90724 1.65821C1.94106 1.65494 1.97529 1.65846 2.00814 1.66876C2.00814 1.66876 2.00815 1.66876 2.00815 1.66877L5.61485 2.79966L5.61601 2.80002C5.65579 2.8124 5.69324 2.83479 5.72467 2.86637C5.7559 2.89775 5.78022 2.93728 5.79457 2.98212C5.79469 2.9825 5.79482 2.98289 5.79494 2.98327L9.8141 15.9674L9.94751 16.3984H10.3987H23.594H24.0869L24.1919 15.9168L26.5406 5.14642L26.7025 4.40408H25.9427H9.79919L9.61725 3.83292H27.0924C27.1295 3.83339 27.1665 3.8421 27.2009 3.85897C27.2358 3.87608 27.2676 3.90139 27.2935 3.93389Z" fill="#BDBDBD" stroke="#252B42" stroke-width="1.22391"/>
</g>
<defs>
<clipPath id="clip0_670_115">
<rect width="28.1499" height="26.926" fill="white" transform="translate(0.431244 0.527954)"/>
</clipPath>
</defs>
</svg>
