<svg width="70" height="68" viewBox="0 0 70 68" fill="none" xmlns="http://www.w3.org/2000/svg">
<g clip-path="url(#clip0_670_133)">
<path d="M1.22164 1.3077H64.1938C67.0654 1.3077 69.3933 3.63557 69.3933 6.50715V61.9685C69.3933 64.84 67.0654 67.1679 64.1938 67.1679H1.22164V1.3077Z" fill="#2091F9"/>
<path d="M1.22164 1.3077H64.1938C67.0654 1.3077 69.3933 3.63557 69.3933 6.50715V61.9685C69.3933 64.84 67.0654 67.1679 64.1938 67.1679H1.22164V1.3077Z" stroke="#E6E6E6" stroke-width="1.15543"/>
<path fill-rule="evenodd" clip-rule="evenodd" d="M40.3051 37.5876L46.5214 43.8038C46.7398 44.0225 46.8625 44.319 46.8624 44.6281C46.8623 44.9372 46.7394 45.2336 46.5208 45.4521C46.3021 45.6705 46.0056 45.7932 45.6965 45.7931C45.3874 45.793 45.091 45.6701 44.8726 45.4515L38.6563 39.2352C36.7981 40.6745 34.4613 41.3519 32.1213 41.1294C29.7814 40.907 27.6141 39.8014 26.0603 38.0378C24.5066 36.2741 23.6831 33.9847 23.7573 31.6354C23.8316 29.2861 24.798 27.0534 26.46 25.3913C28.1221 23.7293 30.3549 22.7628 32.7042 22.6886C35.0535 22.6143 37.3428 23.4379 39.1065 24.9916C40.8702 26.5454 41.9757 28.7127 42.1981 31.0526C42.4206 33.3925 41.7433 35.7293 40.304 37.5876H40.3051ZM32.997 38.8597C34.8357 38.8597 36.599 38.1293 37.8991 36.8292C39.1992 35.5291 39.9296 33.7658 39.9296 31.9271C39.9296 30.0885 39.1992 28.3252 37.8991 27.025C36.599 25.7249 34.8357 24.9945 32.997 24.9945C31.1584 24.9945 29.395 25.7249 28.0949 27.025C26.7948 28.3252 26.0644 30.0885 26.0644 31.9271C26.0644 33.7658 26.7948 35.5291 28.0949 36.8292C29.395 38.1293 31.1584 38.8597 32.997 38.8597Z" fill="white"/>
</g>
<defs>
<clipPath id="clip0_670_133">
<rect width="69.3271" height="67.0156" fill="white" transform="translate(0.643921 0.72998)"/>
</clipPath>
</defs>
</svg>
